<svg width="433" height="133" viewBox="0 0 433 133" fill="none" xmlns="http://www.w3.org/2000/svg">
<path d="M66.5 133C103.227 133 133 103.227 133 66.5C133 29.7731 103.227 0 66.5 0C29.7731 0 0 29.7731 0 66.5C0 103.227 29.7731 133 66.5 133Z" fill="white"/>
<path d="M108 37.0321C108 41.6568 104.256 45.4054 99.6377 45.4054C95.0191 45.4054 91.2754 41.6568 91.2754 37.0321C91.2754 32.4074 95.0191 28.6587 99.6377 28.6587C104.256 28.6587 108 32.4074 108 37.0321Z" fill="#FF1900"/>
<path d="M103.788 52.6854H103.741C102.439 52.7057 101.326 53.6293 101.069 54.906C101.062 54.9468 100.173 59.2659 98.5864 63.5782C97.1215 67.5577 95.7515 69.6629 94.7613 70.6544C94.2188 69.9821 93.5745 69.1808 92.903 68.3794C89.4849 64.2844 88.4201 63.4016 86.9077 63.4016C86.0396 63.4016 85.2257 63.7887 84.6831 64.461C84.3508 64.8685 83.8422 65.7445 84.1134 67.0416C86.338 77.5881 84.0931 83.1499 81.8211 85.9614C79.8136 88.4401 76.9244 89.8051 73.6894 89.8051C69.3285 89.8051 64.4522 87.0819 63.584 81.8732C62.3904 74.7019 67.8025 68.7529 73.5266 62.4577C77.5552 58.0299 81.7194 53.4528 83.3674 48.2984C85.3003 42.2544 84.9002 37.1136 82.2077 33.426C78.9387 28.9372 73.2417 28 69.0436 28C65.327 28 60.9729 28.6995 56.0966 30.0848C48.6092 32.2104 41.9899 36.4616 36.9236 42.2951C36.2115 42.1729 35.0518 42.0303 33.6004 42.0303C31.5319 42.0303 28.8733 42.3223 26.0791 43.436C25.8214 43.5447 25.6993 43.6465 25.5908 43.7416C25.3941 43.9182 25.2652 44.0744 25.1228 44.2645C24.8854 44.5973 24.6548 45.0047 24.4175 45.5276C23.7121 47.0828 23 49.609 23 53.0589C23 54.5257 23.1289 56.1624 23.4408 57.9484C23.6307 59.0146 23.9698 60.203 24.3768 61.4118C24.9804 63.2251 25.7332 65.0722 26.3368 66.4847C26.7437 67.4287 27.076 68.1621 27.2524 68.556C27.327 70.1451 27.5169 71.707 27.8356 73.2282C30.0669 83.8698 35.1332 92.6302 42.4985 98.552C49.362 104.08 57.9346 107 67.2803 107C70.0406 107 72.8552 106.735 75.6494 106.226C86.0531 104.304 95.4124 98.0019 101.326 88.9359C105.748 82.1584 110.231 70.7359 106.488 54.8449C106.189 53.5886 105.077 52.7058 103.795 52.7058L103.788 52.6854ZM29.6397 54.4307C29.0225 56.013 28.6427 57.378 28.1408 59.1233C27.8628 60.1012 27.6593 61.0723 27.5237 62.0027C27.327 61.473 27.1371 60.9433 26.9675 60.4204C26.6081 59.327 26.3164 58.2812 26.174 57.4663C25.8892 55.8296 25.7739 54.356 25.7739 53.0521C25.7739 50.5598 26.1944 48.6719 26.642 47.4291C26.8658 46.8043 27.0964 46.3426 27.2592 46.0641C27.2931 46.003 27.327 45.9555 27.3541 45.9147C29.6532 45.0455 31.871 44.7942 33.614 44.7942C34.0752 44.7942 34.5024 44.8146 34.8958 44.8417C34.1837 45.8061 33.5122 46.8044 32.8883 47.8366C31.6268 49.9078 30.5756 52.0606 29.7278 54.2541C29.7007 54.3152 29.6804 54.3763 29.6532 54.4375L29.6397 54.4307ZM75.1407 103.482C72.5025 103.971 69.871 104.216 67.2735 104.216C50.3522 104.216 34.9772 93.8458 30.5417 72.6442C30.4603 72.2571 30.3925 71.8632 30.3314 71.4762L30.0262 68.1418C30.0262 68.1418 30.0195 68.0603 30.0127 67.9312C29.9042 63.748 30.7045 59.3542 32.3593 55.103C32.3864 55.0419 32.4068 54.974 32.4339 54.9128C32.4407 54.8925 32.4475 54.8789 32.4542 54.8585C32.9968 53.5614 33.7361 52.0334 34.9229 49.8603C34.984 49.7449 35.0993 49.5615 35.2349 49.3442C35.7232 48.57 36.5506 47.3748 37.2424 46.3833C37.4662 46.0641 37.6697 45.7789 37.8528 45.5208C42.39 39.7485 48.7991 35.0423 56.8562 32.7537C61.6511 31.3955 65.7001 30.7775 69.0436 30.7775C80.4986 30.7775 83.754 38.01 80.7292 47.4631C77.0668 58.9127 58.4975 68.1757 60.8509 82.335C61.9224 88.7661 67.7347 92.5826 73.6826 92.5826C82.0652 92.5826 90.726 85.0107 86.8195 66.4712C86.7788 66.2674 86.8127 66.1791 86.9009 66.1791C87.7758 66.1791 93.4185 74.1382 93.9814 74.1518C94.0763 74.1518 94.1713 74.1246 94.2662 74.0975C100.275 72.7596 103.768 55.4697 103.768 55.4697C109.953 81.7374 93.1743 100.155 75.1204 103.489L75.1407 103.482Z" fill="black"/>
<path d="M53.9383 51.7822C50.6558 46.7161 51.7002 40.0812 56.1493 36.2511C55.661 36.482 55.1862 36.7401 54.7251 37.0389C49.1976 40.6245 47.6242 48.0199 51.2119 53.5546C54.7929 59.0893 62.1786 60.6648 67.706 57.0724C68.1672 56.7736 68.6012 56.4408 69.0081 56.0945C63.6978 58.6004 57.2209 56.8551 53.9383 51.7822ZM64.1996 43.0761C64.5048 43.0761 64.8168 43.0421 65.1152 42.9674C66.1461 42.7229 67.0278 42.0914 67.5839 41.1882C68.14 40.285 68.3164 39.2188 68.0722 38.1797C67.6449 36.3733 66.0579 35.1102 64.2064 35.1102C63.9012 35.1102 63.5892 35.1442 63.2908 35.2189C62.26 35.4633 61.3783 36.0949 60.8222 36.9981C60.266 37.9013 60.0897 38.9675 60.3338 40.0065C60.7611 41.8129 62.3481 43.0761 64.1996 43.0761ZM63.6503 36.7604C63.8334 36.7197 64.0165 36.6925 64.1996 36.6925C65.2848 36.6925 66.2682 37.4327 66.5259 38.5397C66.8311 39.83 66.0308 41.1203 64.749 41.4191C64.5659 41.4598 64.3828 41.487 64.1996 41.487C63.1145 41.487 62.1311 40.7468 61.8734 39.6398C61.5682 38.3495 62.3685 37.0592 63.6503 36.7604Z" fill="black"/>
<path d="M176.39 44.78C179.919 44.78 182.78 41.9191 182.78 38.39C182.78 34.8609 179.919 32 176.39 32C172.861 32 170 34.8609 170 38.39C170 41.9191 172.861 44.78 176.39 44.78Z" fill="#FF1900"/>
<path d="M425.99 44.78C429.519 44.78 432.38 41.9191 432.38 38.39C432.38 34.8609 429.519 32 425.99 32C422.461 32 419.6 34.8609 419.6 38.39C419.6 41.9191 422.461 44.78 425.99 44.78Z" fill="#FF1900"/>
<path d="M174.08 61.31C173.36 61.31 172.67 61.24 171.99 61.1V85.93H176.18V61.1C175.51 61.24 174.81 61.31 174.09 61.31H174.08ZM291.38 64.26C289.44 61.52 286.61 60.1 283.05 60.12C281.02 60.12 279.19 60.48 277.56 61.2C275.94 61.92 274.57 62.92 273.44 64.19C272.32 65.46 271.48 66.9 270.92 68.5C270.36 70.1 270.08 71.77 270.08 73.52C270.08 76.14 270.65 78.49 271.79 80.54C272.93 82.58 274.5 84.17 276.47 85.28C278.44 86.39 280.62 86.94 282.99 86.94C284.96 86.94 286.76 86.48 288.36 85.55C289.54 84.87 290.55 83.97 291.38 82.88V85.94H295.34V61.11H291.38V64.27V64.26ZM290.2 78.95C289.41 80.45 288.39 81.55 287.11 82.28C285.82 83.02 284.45 83.39 282.98 83.39C281.39 83.39 279.97 82.98 278.67 82.16C277.37 81.34 276.36 80.19 275.61 78.68C274.86 77.17 274.48 75.45 274.48 73.51C274.48 71.76 274.83 70.13 275.52 68.61C276.21 67.09 277.2 65.89 278.51 64.98C279.8 64.08 281.32 63.63 283.1 63.63C284.45 63.63 285.63 63.9 286.66 64.44C287.7 64.99 288.56 65.72 289.26 66.66C289.97 67.61 290.5 68.67 290.85 69.83C291.21 71 291.38 72.22 291.38 73.5C291.38 75.65 290.98 77.45 290.2 78.93V78.95ZM233.91 76.06C233.91 77.95 233.48 79.66 232.63 81.21C231.84 82.64 230.27 83.39 227.68 83.4C225.07 83.4 223.48 82.64 222.68 81.22C221.82 79.68 221.38 77.98 221.38 76.06V61.1H217.19V75.67C217.19 79.93 218.23 82.95 220.47 84.59C222.61 86.15 225.03 86.93 227.68 86.93C230.28 86.93 232.68 86.14 234.82 84.59C237.06 82.96 238.11 79.94 238.11 75.67V61.1H233.92V76.06H233.91ZM207.74 61.1H201.88L191.79 70.26V44.48H187.6V85.93H191.79V75.04L192.43 74.5L203.81 85.93H209.86L195.47 71.87L207.74 61.09V61.1ZM260.29 60.55C258.83 60.55 257.49 60.98 256.32 61.84C255.43 62.5 254.57 63.52 253.72 64.9V61.1H249.53V85.93H253.72V73.11C253.72 71.84 254.01 70.52 254.61 69.14C255.2 67.76 255.99 66.64 256.95 65.74C257.91 64.85 258.86 64.45 259.85 64.45C260.63 64.45 261.34 64.63 262.01 65L262.47 65.26L263.76 61.27L263.37 61.13C262.33 60.75 261.3 60.55 260.29 60.55ZM401.38 60.12C398.15 60.11 395.57 61.43 393.76 63.98V44.48H389.57V85.93H393.76V73.02C393.76 71.39 394.06 69.85 394.65 68.39C395.24 66.93 396.08 65.79 397.18 64.92C398.27 64.06 399.51 63.64 400.98 63.64C403.2 63.65 404.44 64.32 405.01 65.58C405.63 66.97 405.95 68.64 405.95 70.6V85.93H410.14V70.14C410.14 67.21 409.44 64.78 407.99 62.93C406.53 61.04 404.27 60.11 401.37 60.11L401.38 60.12ZM375.83 72.31C374.76 71.8 373.44 71.3 371.86 70.79C370.59 70.36 369.66 70.02 369.11 69.78C368.59 69.55 368.17 69.22 367.82 68.77C367.5 68.36 367.32 67.8 367.32 67.02C367.32 66.07 367.63 65.3 368.26 64.63C368.87 63.99 369.74 63.65 370.96 63.65C372.07 63.65 373.04 63.96 373.91 64.58C374.79 65.21 375.41 65.99 375.79 66.96L375.97 67.41L379.25 65.66L379.07 65.28C377.49 61.88 374.79 60.09 371.22 60.11C369.6 60.11 368.17 60.41 366.94 61.04C365.72 61.66 364.77 62.53 364.1 63.62C363.44 64.71 363.11 65.94 363.11 67.27C363.11 68.69 363.45 69.91 364.15 70.88C364.83 71.81 365.68 72.54 366.69 73.05C367.67 73.54 368.89 74.02 370.37 74.48C372.12 75 373.48 75.57 374.44 76.18C375.3 76.74 375.74 77.64 375.75 79.08C375.75 80.36 375.35 81.36 374.56 82.17C373.78 82.96 372.68 83.38 371.16 83.38C369.8 83.38 368.67 82.98 367.69 82.19C366.71 81.38 366 80.33 365.56 79L365.4 78.51L361.89 80.36L362.03 80.72C363.6 84.79 366.63 86.93 370.83 86.91C373.84 86.91 376.17 86.14 377.73 84.52C379.26 82.95 380.04 81.07 380.04 78.97C380.04 77.27 379.62 75.82 378.74 74.7C377.9 73.62 376.92 72.81 375.81 72.28L375.83 72.31ZM318.26 72.31C317.19 71.8 315.87 71.3 314.29 70.79C313.02 70.36 312.09 70.02 311.54 69.78C311.02 69.55 310.6 69.22 310.25 68.77C309.93 68.36 309.75 67.8 309.75 67.02C309.75 66.07 310.06 65.3 310.69 64.63C311.3 63.99 312.17 63.65 313.39 63.65C314.5 63.65 315.47 63.96 316.34 64.58C317.22 65.21 317.84 65.99 318.22 66.96L318.4 67.42L321.68 65.67L321.5 65.29C319.92 61.89 317.22 60.1 313.65 60.12C312.03 60.12 310.6 60.42 309.37 61.05C308.15 61.67 307.2 62.54 306.53 63.63C305.87 64.72 305.54 65.95 305.54 67.28C305.54 68.7 305.88 69.92 306.58 70.89C307.26 71.82 308.11 72.55 309.12 73.06C310.1 73.55 311.32 74.03 312.8 74.49C314.55 75.01 315.91 75.58 316.87 76.19C317.73 76.75 318.17 77.65 318.18 79.09C318.18 80.37 317.78 81.37 316.99 82.18C316.21 82.97 315.11 83.39 313.59 83.39C312.23 83.39 311.1 82.99 310.12 82.2C309.14 81.39 308.43 80.34 307.99 79.01L307.83 78.52L304.32 80.37L304.46 80.73C306.03 84.8 309.06 86.94 313.26 86.92C316.27 86.92 318.6 86.15 320.16 84.53C321.68 82.96 322.47 81.08 322.47 78.98C322.47 77.28 322.05 75.83 321.17 74.71C320.33 73.63 319.35 72.82 318.24 72.29L318.26 72.31ZM348.72 76.07C348.72 77.96 348.29 79.67 347.44 81.22C346.65 82.65 345.08 83.4 342.49 83.41C339.88 83.41 338.29 82.65 337.49 81.23C336.63 79.69 336.19 77.99 336.19 76.07V61.11H332V75.68C332 79.94 333.04 82.96 335.28 84.6C337.41 86.16 339.84 86.94 342.49 86.94C345.09 86.94 347.49 86.15 349.63 84.6C351.87 82.97 352.92 79.95 352.92 75.68V61.11H348.73V76.07H348.72ZM425.76 61.11C425.09 61.25 424.39 61.32 423.67 61.32C422.95 61.32 422.26 61.25 421.58 61.11V85.94H425.77V61.11H425.76Z" fill="white"/>
</svg>
